<svg xmlns="http://www.w3.org/2000/svg" width="200" height="200" viewBox="0 0 200 200">
  <defs>
    <linearGradient id="gradient-1" x1="0%" y1="0%" x2="100%" y2="100%">
      <stop offset="0%" stop-color="#1890ff" />
      <stop offset="100%" stop-color="#52c41a" />
    </linearGradient>
  </defs>
  <g fill="none" fill-rule="evenodd">
    <circle cx="100" cy="100" r="90" fill="#ffffff" />
    <path d="M100,20 C55.82,20 20,55.82 20,100 C20,144.18 55.82,180 100,180 C144.18,180 180,144.18 180,100 C180,55.82 144.18,20 100,20 Z M100,40 C133.14,40 160,66.86 160,100 C160,133.14 133.14,160 100,160 C66.86,160 40,133.14 40,100 C40,66.86 66.86,40 100,40 Z" fill="url(#gradient-1)" />
    <path d="M85,95 L65,75 L55,85 L85,115 L145,55 L135,45 Z" fill="url(#gradient-1)" />
  </g>
</svg> 